HIERARCHY
ROOT hip
{
	OFFSET 0.000000 0.000000 0.000000 
	CHANNELS 6 Xposition Yposition Zposition Xrotation Zrotation Yrotation
	JOINT abdomen
	{
		OFFSET 0.000000 3.402643 0.000000 
		CHANNELS 3 Xrotation Zrotation Yrotation
		JOINT chest
		{
			OFFSET 0.000000 8.438565 -0.680529 
			CHANNELS 3 Xrotation Zrotation Yrotation
			JOINT neck
			{
				OFFSET 0.000000 10.207942 -0.272212 
				CHANNELS 3 Xrotation Zrotation Yrotation
				JOINT head
				{
					OFFSET 0.000000 3.130431 0.000000 
					CHANNELS 3 Xrotation Zrotation Yrotation
					End Site
					{
						OFFSET 0.000000 3.130435 0.000000 
					}
				}
			}
			JOINT lCollar
			{
				OFFSET 3.470700 6.669187 -0.816635 
				CHANNELS 3 Yrotation Zrotation Xrotation
				JOINT lShldr
				{
					OFFSET 3.198488 0.000000 0.000000 
					CHANNELS 3 Zrotation Yrotation Xrotation
					JOINT lForeArm
					{
						OFFSET 10.139888 0.000000 0.000000 
						CHANNELS 3 Yrotation Zrotation Xrotation
						JOINT lHand
						{
							OFFSET 8.370511 0.000000 0.000000 
							CHANNELS 3 Zrotation Yrotation Xrotation
							End Site
							{
								OFFSET 4.083176 0.000000 0.000000 
							}
						}
					}
				}
			}
			JOINT rCollar
			{
				OFFSET -3.470700 6.669187 -0.816635 
				CHANNELS 3 Yrotation Zrotation Xrotation
				JOINT rShldr
				{
					OFFSET -3.198488 0.000000 0.000000 
					CHANNELS 3 Zrotation Yrotation Xrotation
					JOINT rForeArm
					{
						OFFSET -10.139888 0.000000 0.000000 
						CHANNELS 3 Yrotation Zrotation Xrotation
						JOINT rHand
						{
							OFFSET -8.370511 0.000000 0.000000 
							CHANNELS 3 Zrotation Yrotation Xrotation
							End Site
							{
								OFFSET -4.083176 0.000000 0.000000 
							}
						}
					}
				}
			}
		}
	}
	JOINT lThigh
	{
		OFFSET 5.308129 -1.633274 1.361059 
		CHANNELS 3 Xrotation Zrotation Yrotation
		JOINT lShin
		{
			OFFSET -2.041588 -20.007561 0.000000 
			CHANNELS 3 Xrotation Zrotation Yrotation
			JOINT lFoot
			{
				OFFSET 0.000000 -19.190928 -1.224953 
				CHANNELS 3 Xrotation Yrotation Zrotation
				End Site
				{
					OFFSET 0.000000 -2.449906 4.627600 
				}
			}
		}
	}
	JOINT rThigh
	{
		OFFSET -5.308129 -1.633274 1.361059 
		CHANNELS 3 Xrotation Zrotation Yrotation
		JOINT rShin
		{
			OFFSET 2.041588 -20.007561 0.000000 
			CHANNELS 3 Xrotation Zrotation Yrotation
			JOINT rFoot
			{
				OFFSET 0.000000 -19.190928 -1.224953 
				CHANNELS 3 Xrotation Yrotation Zrotation
				End Site
				{
					OFFSET 0.000000 -2.449906 4.627600 
				}
			}
		}
	}
}
MOTION
Frames: 10
Frame Time: 0.033333
-44.926720 51.109531 49.366684 5.136719 7.519532 -35.174503 22.808134 -15.209146 -2.453329 -25.302734 10.537110 6.328125 51.553619 8.070152 2.616707 -63.759769 -6.787109 -12.919922 2.000000 -2.000000 0.000000 -62.021484 28.710939 4.394531 -135.566254 2.152541 -2.225163 81.836555 -56.688297 89.962387 -2.000000 2.000000 0.000000 90.107422 -21.533201 -3.173828 54.678181 1.374910 -1.989879 3.113752 -48.404846 7.172801 -21.269541 -2.196902 2.475288 17.460321 -6.093552 -2.043593 -2.368766 12.172296 -1.249194 13.806264 -2.344289 -17.074183 30.210583 4.935834 2.804013 31.496143 -23.230364 -7.325691 
-46.801693 52.292282 52.024021 5.292969 7.509767 -34.988960 23.378828 -13.363628 -4.015171 -25.849609 10.556643 6.056477 51.553619 8.070152 2.616707 -62.519527 -6.757812 -10.626151 2.000000 -2.000000 0.000000 -59.375000 27.607422 6.049448 -135.381500 2.150838 -2.254033 81.910210 -57.273262 89.706512 -2.000000 2.000000 0.000000 91.083984 -22.988281 -1.956937 54.490017 1.535522 -1.892267 4.163389 -48.869164 6.356102 -14.803305 -2.567672 2.609827 11.808175 -6.228960 -1.613030 0.824201 12.163561 -1.474645 -1.962697 -6.421738 -17.107319 49.992744 3.310233 4.277966 26.402243 -23.746740 0.705504 
-48.836929 52.781944 55.066578 5.673828 7.695313 -34.580082 23.899040 -11.425979 -5.327939 -26.210938 10.556642 5.634766 51.553619 8.070152 2.616707 -61.240234 -6.542969 -8.380020 2.000000 -2.000000 0.000000 -56.835941 26.894531 7.705078 -135.188690 1.970815 -2.321762 82.462273 -57.978046 89.064178 -2.000000 2.000000 0.000000 92.460938 -24.365232 -1.605590 53.975601 1.366299 -2.009938 4.804544 -49.761726 5.613655 -7.421777 -2.724407 2.458490 4.538947 -6.337004 -0.766978 1.110463 11.337332 -0.913759 -13.610754 -9.332808 -16.636517 60.900711 2.714612 4.460099 21.986406 -24.180418 5.675814 
-50.971920 52.751812 58.320671 6.025391 7.861328 -33.964844 24.404329 -9.413357 -6.762067 -26.562500 10.742188 5.216664 51.553619 8.070152 2.616707 -60.361332 -6.630858 -6.191407 2.000000 -2.000000 0.000000 -54.951172 26.406248 9.326173 -135.219147 2.280324 -2.046843 82.846741 -58.240707 88.485138 -2.000000 2.000000 0.000000 94.365234 -25.693361 -2.426109 53.448517 1.366868 -2.019683 6.014102 -50.561306 3.956907 1.481018 -2.844564 2.404098 -5.240800 -5.794672 0.305241 1.637591 10.509382 -1.142678 -18.074947 -9.178747 -17.910355 57.017197 2.880767 4.478245 17.487774 -23.182667 5.344264 
-53.003574 52.209400 61.271580 6.542969 7.832032 -33.377575 24.703646 -7.722349 -7.929677 -26.738283 10.917969 4.843750 51.553619 8.070152 2.616707 -60.537106 -6.611327 -4.239406 2.000000 -2.000000 0.000000 -54.023438 26.220703 10.000000 -135.219147 2.280324 -2.046843 84.017792 -57.573494 87.563179 -2.000000 2.000000 0.000000 95.996094 -26.943361 -3.412628 53.611641 1.536660 -1.911758 6.692669 -52.236877 2.822249 10.159532 -2.966388 2.192417 -16.536732 -5.765786 1.529005 5.370508 9.322198 -1.065463 -19.097387 -7.418426 -19.794821 43.866119 3.981126 3.908980 12.653878 -20.312906 3.473059 
-54.683670 52.992874 63.603287 7.070312 7.832031 -32.763668 25.009510 -6.467876 -9.081099 -26.914063 11.269532 4.482422 51.553619 8.070152 2.616707 -61.210941 -6.357421 -2.783203 2.000000 -2.000000 0.000000 -53.554688 26.494141 10.619595 -135.390717 2.161722 -2.235110 86.717606 -56.688850 85.791664 -2.000000 2.000000 0.000000 97.138672 -28.203125 -4.375000 53.247440 1.677201 -1.805773 6.785734 -52.882275 2.429576 11.797883 -2.370421 2.881686 -12.835121 -5.833745 1.272591 2.326503 8.347831 -0.360071 -18.797642 -5.214081 -21.870810 28.883928 4.550207 2.520844 8.804825 -15.516869 1.876444 
-56.482735 52.864811 65.211411 7.607422 7.656250 -32.205730 25.086794 -6.263278 -9.770439 -26.337891 12.675782 4.140625 51.553619 8.070152 2.616707 -62.519535 -6.923827 -1.816407 2.000000 -2.000000 0.000000 -54.101563 25.869143 10.390624 -135.570236 2.153779 -2.371547 87.430641 -55.851501 85.226753 -2.000000 2.000000 0.000000 96.992188 -29.072266 -5.434433 53.436123 1.537230 -1.921504 6.526970 -53.182842 3.088294 11.060585 -1.112297 4.495728 -5.225382 -5.798857 0.490213 -1.786291 7.322904 -0.041096 -19.810225 -3.337197 -22.786404 19.199911 5.339318 1.869143 6.048592 -11.238843 0.941028 
-58.989639 52.073803 67.517906 8.144532 7.304688 -31.990946 25.136059 -6.983627 -10.300752 -25.390625 14.755858 3.955079 51.553619 8.070152 2.616707 -64.326172 -8.623046 -1.357422 2.000000 -2.000000 0.000000 -55.371098 24.345701 9.511718 -135.595367 2.453626 -2.262328 86.789879 -56.134659 86.038376 -2.000000 2.000000 0.000000 96.308594 -29.560551 -7.558595 53.782143 1.546330 -2.077695 5.245485 -53.016788 5.076207 12.544673 0.683990 5.405149 0.877024 -6.330852 -0.347821 -4.194938 6.058832 0.523588 -22.966133 -2.167031 -22.051195 17.466160 5.388972 1.687036 4.520005 -9.285830 0.188267 
-61.140133 51.162262 70.131027 8.671875 6.933594 -31.805462 24.767687 -7.066032 -10.136219 -24.619143 15.957031 3.886719 51.553619 8.070152 2.616707 -66.269531 -11.152343 -1.103516 2.000000 -2.000000 0.000000 -57.597660 22.119143 7.734374 -135.570526 2.143463 -2.380723 85.484940 -56.270061 87.332939 -2.000000 2.000000 0.000000 95.527344 -30.263674 -8.559609 53.962723 1.506275 -1.893973 4.490137 -52.504044 5.989500 18.001200 1.533856 5.820921 -2.080422 -5.807937 -0.003258 -4.280054 6.781318 4.784453 -26.891703 -1.707976 -19.867651 19.204206 5.320815 1.885793 3.848690 -8.952237 -0.399657 
-62.688320 50.258266 73.018646 8.994141 5.898438 -32.108372 24.163246 -5.880373 -9.399022 -24.462891 15.244141 4.042969 51.553619 8.070152 2.616707 -67.304688 -13.261718 -0.498047 2.000000 -2.000000 0.000000 -59.853516 21.523438 6.673505 -135.381500 2.150838 -2.254033 84.295181 -56.810890 88.504425 -2.000000 2.000000 0.000000 94.990234 -30.996092 -9.101562 53.957909 1.556080 -2.077128 4.009540 -52.745407 6.760973 25.163647 2.060735 5.749607 -7.197542 -5.944458 0.833819 -2.832718 8.976784 9.031220 -30.483171 -1.326773 -17.353359 22.546747 5.022800 2.140934 2.968489 -8.735113 -1.128576 
